<svg width="75" height="60" viewBox="0 0 75 60" fill="none" xmlns="http://www.w3.org/2000/svg">
<path d="M37.4816 60.0001C37.0489 60.0008 36.6336 59.8508 36.3272 59.5831L0.457699 28.1643C-0.167928 27.5971 -0.149891 26.6929 0.497746 26.1449C1.12964 25.6105 2.13129 25.6105 2.76303 26.1449L37.4814 56.5525L72.1966 26.1421C72.8443 25.5941 73.8765 25.6099 74.5021 26.1772C75.1124 26.7307 75.1124 27.608 74.5021 28.1615L38.6327 59.5802C38.3276 59.8482 37.9137 59.9992 37.4816 60.0001Z" fill="white"/>
<path d="M37.4816 34.2939C37.0489 34.2946 36.6336 34.1446 36.3272 33.8769L0.457699 2.45815C-0.167928 1.89088 -0.149891 0.986742 0.497746 0.438745C1.12964 -0.09573 2.13129 -0.09573 2.76318 0.438745L37.4816 30.8464L72.1968 0.435933C72.8224 -0.131344 73.8545 -0.147008 74.5023 0.400855C75.15 0.948718 75.1678 1.85285 74.5423 2.42026C74.5292 2.43218 74.5159 2.44383 74.5023 2.45534L38.6327 33.8741C38.3276 34.142 37.9137 34.293 37.4816 34.2939Z" fill="white"/>
</svg>
