<svg width="915" height="281" viewBox="0 0 915 281" fill="none" xmlns="http://www.w3.org/2000/svg">
<path d="M226.589 138.602C226.589 153.256 226.364 166.06 226.693 178.893C226.843 184.653 225.195 187.145 218.994 186.921C208.628 186.563 198.247 186.668 187.881 186.921C182.863 187.026 180.945 185.265 180.99 180.087C181.215 156.957 181.065 133.827 181.095 110.682C181.095 98.2518 187.596 91.5516 200.209 91.3875C215.968 91.1786 231.667 91.3875 247.5 91.2979C251.035 91.5216 254.582 91.1379 257.986 90.1638C268.277 86.5376 273.52 77.5244 272.217 65.5267C271.228 56.5732 262.749 48.4554 252.923 47.2168C252.099 47.1072 251.268 47.0573 250.436 47.0676C202.741 47.9331 155.105 45.7096 107.425 44.7994C91.4566 44.5009 76.7016 48.5001 65.0474 60.6172C52.5393 73.6595 47.641 88.8506 53.0636 106.116C58.711 124.157 71.3389 135.737 89.8987 140.438C101.298 143.348 111.619 139.587 121.641 134.812C131.003 130.335 136.141 130.977 143.481 138.11C148.664 143.154 153.518 148.556 158.97 153.346C163.374 157.226 162.371 159.852 158.521 163.254C146.657 173.708 132.227 180.849 116.697 183.952C73.0016 193.383 29.6503 171.775 11.5099 131.32C-13.2965 76.0172 26.4896 7.62733 87.0825 1.59863C106.556 -0.341299 126.03 0.897293 145.503 1.4345C161.262 1.86726 176.961 1.65832 192.809 1.67325C211.684 1.67325 230.558 1.67325 249.448 1.67325C286.717 1.67325 317.261 29.7276 318.534 66.6459C319.418 92.0142 308.318 112.324 286.373 125.754C280.785 129.171 281.879 130.634 285.653 134.245C301.217 149.421 316.542 164.836 331.896 180.221C333.394 181.714 336.54 183.206 335.656 185.369C334.592 188.056 331.237 186.742 328.885 186.757C313.531 186.847 298.177 186.653 282.837 186.892C280.479 187.019 278.121 186.624 275.935 185.733C273.748 184.843 271.788 183.48 270.194 181.743C257.926 169.149 245.343 156.838 232.85 144.437C231.277 142.87 229.629 141.378 226.693 138.632" fill="white"/>
<path d="M669.133 71.8995C657.269 85.6133 646.574 97.9244 635.923 110.28C625.273 122.636 614.952 122.815 604.346 110.594C594.879 99.6405 585.457 88.6575 575.975 77.7641C574.941 76.5554 574.192 74.9586 572.26 74.496C570.477 76.4061 571.316 78.7788 571.316 80.8978C571.246 112.912 571.246 144.92 571.316 176.924C571.316 185.176 570.882 185.549 562.433 185.579C552.471 185.579 542.525 185.475 532.563 185.579C527.935 185.654 525.927 184.087 525.942 179.148C526.072 121.746 526.072 64.3388 525.942 6.92686C525.942 1.7189 527.785 0.152039 532.818 0.286342C542.974 0.56987 553.146 0.525102 563.302 0.286342C565.249 0.21274 567.185 0.613229 568.941 1.45312C570.698 2.29301 572.223 3.54696 573.383 5.10631C587.494 21.6255 601.845 37.9359 615.925 54.4551C619.236 58.3797 620.929 58.32 624.254 54.3656C637.736 38.2194 651.832 22.4463 665.478 6.3598C669.118 2.06211 672.968 -0.012107 678.825 0.241576C688.547 0.674329 698.299 0.540026 708.051 0.241576C712.754 0.122196 714.762 1.59952 714.762 6.5538C714.662 64.1647 714.662 121.776 714.762 179.386C714.762 184.027 712.769 185.564 708.395 185.52C698.029 185.385 687.648 185.221 677.297 185.52C671.201 185.729 669.014 183.848 669.074 177.447C669.373 145.035 669.208 112.608 669.208 80.1965L669.133 71.8995Z" fill="white"/>
<path d="M327.986 93.8197C327.986 42.1729 368.85 2.06111 420.86 1.44928C465.994 0.926996 513.734 36.547 513.734 93.9689C513.734 146.437 472.764 186.265 421.264 186.414C362.274 186.593 326.458 137.796 328.06 93.7451L327.986 93.8197ZM420.47 140.751C446.595 140.856 467.536 120.501 467.641 94.9091C467.731 68.138 447.404 47.157 421.204 46.963C414.959 46.8162 408.746 47.9091 402.929 50.178C397.112 52.447 391.806 55.8465 387.321 60.1786C382.836 64.5106 379.261 69.6887 376.805 75.4109C374.348 81.133 373.06 87.285 373.014 93.5082C372.968 99.7314 374.166 105.901 376.538 111.659C378.91 117.416 382.409 122.646 386.83 127.043C391.251 131.44 396.506 134.916 402.289 137.27C408.073 139.623 414.268 140.807 420.515 140.751" fill="white"/>
<path d="M821.597 185.161C768.269 183.892 727.629 142.094 729.007 89.6567C729.414 77.1355 732.366 64.8265 737.683 53.4739C743.001 42.1213 750.575 31.961 759.947 23.6071C769.318 15.2532 780.293 8.8794 792.208 4.87093C804.122 0.862461 816.729 -0.697372 829.266 0.285742C874.31 3.38963 916.883 41.9196 914.935 96.0585C914.089 120.093 903.862 142.85 886.43 159.488C868.999 176.126 845.738 185.332 821.597 185.146V185.161ZM821.777 139.349C848.156 139.349 869.831 118.039 869.532 92.2831C869.282 79.8837 864.153 68.0782 855.251 59.4085C846.349 50.7389 834.385 45.8985 821.936 45.9298C809.487 45.9611 797.547 50.8616 788.689 59.5759C779.831 68.2902 774.763 80.1214 774.575 92.5218C774.583 98.6854 775.811 104.787 778.188 110.477C780.565 116.168 784.046 121.335 788.43 125.685C792.814 130.034 798.015 133.479 803.737 135.824C809.459 138.169 815.589 139.366 821.777 139.349" fill="white"/>
<path d="M874.73 277.74V280.889H33.2303C28.9157 280.981 24.626 280.214 20.6128 278.633C16.5996 277.052 12.9437 274.689 9.8595 271.682C6.7753 268.675 4.3249 265.085 2.652 261.122C0.97909 257.159 0.117371 252.903 0.117371 248.604C0.117371 244.305 0.97909 240.049 2.652 236.086C4.3249 232.123 6.7753 228.533 9.8595 225.525C12.9437 222.518 16.5996 220.155 20.6128 218.574C24.626 216.993 28.9157 216.226 33.2303 216.319H874.73C879.045 216.226 883.334 216.993 887.348 218.574C891.361 220.155 895.017 222.518 898.101 225.525C901.185 228.533 903.635 232.123 905.308 236.086C906.981 240.049 907.843 244.305 907.843 248.604C907.843 252.903 906.981 257.159 905.308 261.122C903.635 265.085 901.185 268.675 898.101 271.682C895.017 274.689 891.361 277.052 887.348 278.633C883.334 280.214 879.045 280.981 874.73 280.889V274.591C881.647 274.591 888.28 271.854 893.171 266.982C898.062 262.11 900.81 255.502 900.81 248.611C900.81 241.721 898.062 235.113 893.171 230.24C888.28 225.368 881.647 222.631 874.73 222.631H33.2303C26.3135 222.631 19.68 225.368 14.7891 230.24C9.89824 235.113 7.15058 241.721 7.15058 248.611C7.15058 255.502 9.89824 262.11 14.7891 266.982C19.68 271.854 26.3135 274.591 33.2303 274.591H874.73V277.74Z" fill="url(#paint0_linear)"/>
<defs>
<linearGradient id="paint0_linear" x1="-0.953886" y1="246.873" x2="907.658" y2="246.873" gradientUnits="userSpaceOnUse">
<stop stop-color="#2D97CC"/>
<stop offset="0.5" stop-color="#A7358B"/>
<stop offset="1" stop-color="#E8394E"/>
</linearGradient>
</defs>
</svg>
