<?xml version="1.0" encoding="utf-8"?>
<!-- Generator: Adobe Illustrator 24.0.1, SVG Export Plug-In . SVG Version: 6.00 Build 0)  -->
<svg version="1.1" id="Camada_1" xmlns="http://www.w3.org/2000/svg" xmlns:xlink="http://www.w3.org/1999/xlink" x="0px" y="0px"
	 viewBox="0 0 610.3 188.2" style="enable-background:new 0 0 610.3 188.2;" xml:space="preserve">
<g>
	<g>
		<path d="M343,124.1c0,9.8-0.1,18.4,0.1,27c0.1,3.9-1,5.5-5.1,5.4c-6.9-0.2-13.9-0.2-20.8,0c-3.4,0.1-4.6-1.1-4.6-4.6
			c0.1-15.5,0-31,0.1-46.5c0-8.3,4.3-12.8,12.8-12.9c10.5-0.1,21,0,31.6-0.1c2.4,0.1,4.7-0.1,7-0.8c6.9-2.4,10.4-8.5,9.5-16.5
			c-0.7-6-6.3-11.4-12.9-12.3c-0.6-0.1-1.1-0.1-1.7-0.1c-31.8,0.6-63.6-0.9-95.5-1.5c-10.7-0.2-20.5,2.5-28.3,10.6
			c-8.4,8.7-11.6,18.9-8,30.5c3.8,12.1,12.2,19.9,24.6,23c7.6,2,14.5-0.6,21.2-3.8c6.3-3,9.7-2.6,14.6,2.2c3.5,3.4,6.7,7,10.3,10.2
			c2.9,2.6,2.3,4.4-0.3,6.6c-7.9,7-17.6,11.8-27.9,13.9c-29.2,6.3-58.1-8.2-70.2-35.3c-16.6-37.1,10-82.9,50.4-86.9
			c13-1.3,26-0.5,39-0.1c10.5,0.3,21,0.1,31.6,0.2c12.6,0,25.2,0,37.8,0c24.9,0,45.3,18.8,46.1,43.5c0.6,17-6.8,30.6-21.5,39.6
			c-3.7,2.3-3,3.3-0.5,5.7c10.4,10.2,20.6,20.5,30.9,30.8c1,1,3.1,2,2.5,3.5c-0.7,1.8-3,0.9-4.5,0.9c-10.3,0.1-20.5-0.1-30.7,0.1
			c-3.2,0.2-6.3-1.1-8.4-3.5c-8.2-8.4-16.6-16.7-24.9-25C346.1,127,345,126,343,124.1"/>
	</g>
</g>
</svg>
