<svg id="Camada_1" data-name="Camada 1" xmlns="http://www.w3.org/2000/svg" xmlns:xlink="http://www.w3.org/1999/xlink" viewBox="0 0 199.37 162.27"><defs><style>.cls-1{fill:none;}.cls-2{clip-path:url(#clip-path);}.cls-3{fill:url(#Gradiente_sem_nome);}.cls-4{fill:url(#Gradiente_sem_nome-2);}</style><clipPath id="clip-path" transform="translate(-315.94 -213.35)"><rect class="cls-1" x="-263.3" y="-458" width="1407.6" height="995.28"/></clipPath><linearGradient id="Gradiente_sem_nome" x1="315.94" y1="269.09" x2="513.64" y2="269.09" gradientUnits="userSpaceOnUse"><stop offset="0" stop-color="#2d97cc"/><stop offset="0.5" stop-color="#a7358b"/><stop offset="1" stop-color="#e8394e"/></linearGradient><linearGradient id="Gradiente_sem_nome-2" x1="-0.25" y1="596.36" x2="1.42" y2="596.36" gradientTransform="matrix(119.5, 0, 0, -119.5, 346.68, 71626.8)" xlink:href="#Gradiente_sem_nome"/></defs><title>logo-maneira icone</title><g class="cls-2"><path class="cls-3" d="M448.39,295.57c0,8.92-.19,16.69.09,24.45.14,3.85-1.19,4.93-4.88,4.76-6.06-.26-12.14-.18-18.21,0-3,.07-4.23-.81-4.21-4,.12-13.75,0-27.5.08-41.24.06-7.49,4.37-11.64,11.94-11.7,9.66-.08,19.32,0,29,0,8.25,0,14-5.45,14-13.05,0-7.82-5.81-13.33-14.2-13.37-15.61-.07-31.23.17-46.83-.22-13-.32-25.95-1.54-39-1.19-9.25.25-17.51,2.75-24.16,9.59-9.24,9.5-10.86,23-3.89,34.07,7.65,12.13,20.48,16.86,33.34,12.27a42.26,42.26,0,0,0,4.44-1.89c5.51-2.72,8.69-2.35,13.09,1.84,3.31,3.16,6.41,6.56,9.78,9.65,2,1.84,1.72,3.09-.11,4.82-7.51,7.13-16.47,11.22-26.54,13.25-25.67,5.19-51.39-7.81-61.83-31.56-13.93-31.68,6.51-73.51,44.49-77.77,14.8-1.66,29.68-.62,44.52-.14,1.48,0,3,.1,4.46.1,16.6,0,33.2-.05,49.8,0,17.83.09,33.92,12.62,38.61,29.9a39.64,39.64,0,0,1-18.36,44.72c-2.73,1.59-2.14,2.44-.37,4.19q14.16,14,28.14,28.1c.82.82,2.45,1.56,1.91,2.87s-2.21.66-3.37.67c-9.42,0-18.84-.08-28.25.08a9.35,9.35,0,0,1-7.52-3.06c-8.27-8.52-16.73-16.86-26-26.14" transform="translate(-315.94 -213.35)"/></g><path class="cls-4" d="M498.18,374v1.67H334.3a17.13,17.13,0,1,1,0-34.25H498.18a17.13,17.13,0,1,1,0,34.25v-3.34a13.79,13.79,0,0,0,0-27.57H334.3a13.79,13.79,0,0,0,0,27.57H498.18Z" transform="translate(-315.94 -213.35)"/></svg>