<svg id="LOGO" xmlns="http://www.w3.org/2000/svg" viewBox="0 0 5613.1 1439"><defs><style>.cls-1{fill:#fff;}</style></defs><title>Senai - Logo Branco</title><g id="Logo_Senai" data-name="Logo Senai"><path class="cls-1" d="M193.45,1499.65v217.9h294.1v30H193.45v213.3h294.1v30H193.45v213.3h294.1v30H193.45v213.3h294.1v30H193.45v213.3h294.1v30H193.45v217.9h5613.1v-1439ZM1575,2010.8v-3.13H1299.89c9.38-40.64,3.13-68.78-18.76-90.67-18.76-18.76-53.16-31.27-100.06-31.27-65.66,0-131.32,43.78-140.7,93.8-15.63,75,68.79,100.06,137.58,118.82,159.46,43.77,403.34,62.53,343.94,334.56-43.78,212.62-275.16,312.67-509.66,312.67-237.63,0-428.36-68.79-375.21-343.94H918.43c-21.89,93.8,37.52,147,137.57,147,65.67,0,153.21-34.4,168.85-100.06C1253,2311,1040.37,2342.23,840.26,2245.31c-93.8-46.91-121.94-137.58-100.06-247,62.54-240.75,284.54-306.42,497.15-306.42C1443.72,1691.87,1643.83,1766.92,1575,2010.8ZM2431.76,2311H1981.52l-46.91,215.74h490.9l-40.65,197v-6.25h-772.3l215.75-1009.93h769.17l-40.65,197H2065.94L2022.16,2114h450.25Zm712.9,412.72-178.23-775.42h-3.12l-165.72,775.42H2544.33L2763.2,1713.76H3154l178.22,753.54,3.13-3.12,159.46-750.42h253.27L3532.37,2723.69Zm1307,0-25-197H4017l-106.31,197H3629.3l612.84-1009.93H4583l184.48,1009.93Zm706.64,0h-281.4l215.74-1009.93H5374Zm648.18-2.94h-294.1v-30h294.1Zm0-243.3h-294.1v-30h294.1Zm0-243.3h-294.1v-30h294.1Zm0-243.3h-294.1v-30h294.1Zm0-243.3h-294.1v-30h294.1Z" transform="translate(-193.45 -1499.65)"/><polygon class="cls-1" points="4164.38 411.1 3939.25 830.08 4208.15 830.08 4167.51 411.1 4164.38 411.1"/></g></svg>